<?xml version="1.0" encoding="utf-8"?>
<!-- Generator: Adobe Illustrator 22.1.0, SVG Export Plug-In . SVG Version: 6.00 Build 0)  -->
<svg version="1.1" id="Livello_1" xmlns="http://www.w3.org/2000/svg" xmlns:xlink="http://www.w3.org/1999/xlink" x="0px" y="0px"
	 viewBox="0 0 18 18" style="enable-background:new 0 0 18 18;" xml:space="preserve">
<style type="text/css">
	.st0{fill:none;}
	.st1{fill:#697077;stroke:#697077;stroke-width:0.7745;stroke-miterlimit:10;}
</style>
<path class="st0" d="M0,0h18v18H0V0z"/>
<path class="st1" d="M10.5,9.9h-0.3l-0.1-0.1c0.4-0.5,0.7-1.2,0.5-2c-0.2-1-1-1.9-2.1-2C7,5.7,5.7,7,5.9,8.5c0.1,1,0.9,1.9,2,2.1
	c0.7,0.1,1.5-0.1,2-0.5l0.1,0.1v0.3l1.6,1.6c0.1,0.1,0.4,0.1,0.5,0c0.1-0.1,0.1-0.4,0-0.5L10.5,9.9z M8.2,9.9
	c-0.9,0-1.7-0.7-1.7-1.7s0.7-1.7,1.7-1.7s1.7,0.7,1.7,1.7S9.2,9.9,8.2,9.9z"/>
</svg>
